<mxfile host="app.diagrams.net" agent="Mozilla/5.0 (Windows NT 10.0; Win64; x64) AppleWebKit/537.36 (KHTML, like Gecko) Chrome/122.0.0.0 Safari/537.36" version="24.8.6">
  <diagram name="Page-1" id="JkcvIhcw6_FC3EPFU_mK">
    <mxGraphModel dx="1050" dy="557" grid="1" gridSize="10" guides="1" tooltips="1" connect="1" arrows="1" fold="1" page="1" pageScale="1" pageWidth="850" pageHeight="1100" math="0" shadow="0">
      <root>
        <mxCell id="0" />
        <mxCell id="1" parent="0" />
        <mxCell id="Xq3fXdIouJ5ooNmYmRk8-1" value="&lt;p style=&quot;margin:0px;margin-top:4px;text-align:center;&quot;&gt;BillCalculationController&lt;br&gt;&lt;/p&gt;" style="verticalAlign=top;align=left;overflow=fill;html=1;whiteSpace=wrap;" vertex="1" parent="1">
          <mxGeometry x="20" y="50" width="170" height="110" as="geometry" />
        </mxCell>
        <mxCell id="Xq3fXdIouJ5ooNmYmRk8-3" value="" style="html=1;verticalAlign=bottom;endArrow=block;curved=0;rounded=0;" edge="1" parent="1">
          <mxGeometry width="80" relative="1" as="geometry">
            <mxPoint x="190" y="110" as="sourcePoint" />
            <mxPoint x="270" y="110" as="targetPoint" />
          </mxGeometry>
        </mxCell>
        <mxCell id="Xq3fXdIouJ5ooNmYmRk8-4" value="&lt;p style=&quot;margin:0px;margin-top:4px;text-align:center;&quot;&gt;BillCalculationService&lt;br&gt;&lt;/p&gt;" style="verticalAlign=top;align=left;overflow=fill;html=1;whiteSpace=wrap;" vertex="1" parent="1">
          <mxGeometry x="270" y="50" width="170" height="110" as="geometry" />
        </mxCell>
        <mxCell id="Xq3fXdIouJ5ooNmYmRk8-6" value="&lt;p style=&quot;margin:0px;margin-top:4px;text-align:center;&quot;&gt;DiscountCalculationService&lt;br&gt;&lt;/p&gt;" style="verticalAlign=top;align=left;overflow=fill;html=1;whiteSpace=wrap;" vertex="1" parent="1">
          <mxGeometry x="600" y="20" width="170" height="110" as="geometry" />
        </mxCell>
        <mxCell id="Xq3fXdIouJ5ooNmYmRk8-7" value="&lt;p style=&quot;margin:0px;margin-top:4px;text-align:center;&quot;&gt;CurrencyConversionService&lt;br&gt;&lt;/p&gt;" style="verticalAlign=top;align=left;overflow=fill;html=1;whiteSpace=wrap;" vertex="1" parent="1">
          <mxGeometry x="600" y="180" width="170" height="110" as="geometry" />
        </mxCell>
        <mxCell id="Xq3fXdIouJ5ooNmYmRk8-8" value="" style="html=1;verticalAlign=bottom;endArrow=block;curved=0;rounded=0;entryX=-0.024;entryY=0.387;entryDx=0;entryDy=0;entryPerimeter=0;exitX=0.998;exitY=0.587;exitDx=0;exitDy=0;exitPerimeter=0;" edge="1" parent="1" source="Xq3fXdIouJ5ooNmYmRk8-4" target="Xq3fXdIouJ5ooNmYmRk8-6">
          <mxGeometry width="80" relative="1" as="geometry">
            <mxPoint x="450" y="105" as="sourcePoint" />
            <mxPoint x="530" y="104.5" as="targetPoint" />
          </mxGeometry>
        </mxCell>
        <mxCell id="Xq3fXdIouJ5ooNmYmRk8-9" value="" style="html=1;verticalAlign=bottom;endArrow=block;curved=0;rounded=0;entryX=0;entryY=0.5;entryDx=0;entryDy=0;" edge="1" parent="1" target="Xq3fXdIouJ5ooNmYmRk8-7">
          <mxGeometry width="80" relative="1" as="geometry">
            <mxPoint x="440" y="141.5" as="sourcePoint" />
            <mxPoint x="596" y="100" as="targetPoint" />
          </mxGeometry>
        </mxCell>
        <mxCell id="Xq3fXdIouJ5ooNmYmRk8-10" value="&lt;p style=&quot;margin:0px;margin-top:4px;text-align:center;&quot;&gt;Fx Exchange Service&lt;br&gt;&lt;/p&gt;" style="verticalAlign=top;align=left;overflow=fill;html=1;whiteSpace=wrap;" vertex="1" parent="1">
          <mxGeometry x="860" y="90" width="170" height="110" as="geometry" />
        </mxCell>
        <mxCell id="Xq3fXdIouJ5ooNmYmRk8-12" value="" style="html=1;verticalAlign=bottom;endArrow=block;curved=0;rounded=0;entryX=0;entryY=0.5;entryDx=0;entryDy=0;" edge="1" parent="1" target="Xq3fXdIouJ5ooNmYmRk8-10">
          <mxGeometry width="80" relative="1" as="geometry">
            <mxPoint x="770" y="230" as="sourcePoint" />
            <mxPoint x="930" y="323.5" as="targetPoint" />
          </mxGeometry>
        </mxCell>
      </root>
    </mxGraphModel>
  </diagram>
</mxfile>
